<svg width="60" height="60" viewBox="0 0 58 44" xmlns="http://www.w3.org/2000/svg" xmlns:xlink="http://www.w3.org/1999/xlink" id="sole-icon" fill="#4D4D4F" class="global-header__logo"><g id="Home" stroke="none" stroke-width="1" fill="none" fill-rule="evenodd" title="Sole"><g transform="translate(-24.000000, -16.000000)" fill="#4D4D4F" id="HEADER"><g><g id="Logo/Sole/Dark" transform="translate(24.000000, 16.000000)"><g id="logo" transform="translate(0.000000, 0.564103)"><path d="M18.4464214,14.4925846 L16.5735282,17.2093026 C16.3860136,17.4817641 16.4541495,17.8546359 16.725567,18.0424821 C16.9975476,18.2303282 17.3697612,18.1620718 17.5572757,17.8901744 L19.4301689,15.1728923 C19.4301689,15.1728923 19.4594505,14.9201744 19.0658388,14.6477128 C18.6722272,14.3758154 18.4464214,14.4925846 18.4464214,14.4925846" id="Fill-1"></path><path d="M18.4106641,0 C18.8037126,0 19.1894408,0.0259487179 19.5560233,0.0772820513 C20.9998291,0.278666667 22.1142175,0.822461538 22.9639456,1.73969231 C23.5749165,2.39912821 23.9916155,3.20128205 24.2393825,4.19128205 C24.4719456,5.12205128 24.5417709,6.11374359 24.4482951,7.14041026 C24.2151689,9.69353846 23.2866058,12.0469744 21.6885087,14.1352821 C21.4705864,14.4201538 21.2633631,14.6621538 21.0189748,14.9238974 C20.7683922,15.1912821 20.455868,15.3650256 20.1247612,15.4428718 L20.1219456,15.4332821 L20.1427806,15.2550256 C20.1810718,14.9255897 20.0245282,14.4382051 19.4732466,14.0568718 C19.1781786,13.8526667 18.8791689,13.7494359 18.5852272,13.7494359 C18.3543534,13.7494359 18.1933049,13.8148718 18.1172854,13.8537949 L17.9579262,13.9367179 L17.946101,13.9378462 C17.9438485,13.9231795 17.9421592,13.9085128 17.9404699,13.8938462 C17.8875379,13.3957436 18.0384505,12.9218974 18.4106641,12.4824615 C19.4512854,11.1489231 20.4125087,9.27835897 20.7655767,7.8545641 C20.9654796,7.04564103 20.988567,6.36364103 20.8387806,5.70702564 C20.6202951,4.75369231 20.007635,4.16364103 19.0171301,3.95323077 C18.6961592,3.88497436 18.3554796,3.85 18.0069165,3.85 C17.5631883,3.85 17.091868,3.90415385 16.5664893,4.01641026 C15.1542175,4.31651282 13.7886835,4.94774359 12.3927417,5.94451282 C10.3492272,7.40384615 8.77815922,9.20784615 7.72289709,11.3051795 C7.22511068,12.2934872 6.89344078,13.3150769 6.73689709,14.3406154 C6.64511068,14.9368718 6.62089709,15.5850256 6.66256699,16.3223077 C6.76843107,18.2007692 7.31746019,20.1164615 8.39017864,22.3514359 C8.83278058,23.2731795 9.30410097,24.1915385 9.76021748,25.08 C9.97250874,25.4934872 10.1848,25.9069744 10.3942757,26.3221538 C10.6082563,26.7441026 11.6809748,29.1088205 12.230567,30.5410769 C11.9591495,30.6510769 11.6257903,30.7858974 11.2169748,30.9523077 C10.3261398,31.3138974 9.35196505,31.7098974 8.74155728,31.9581026 C8.43297476,31.4002051 7.20765437,29.1979487 7.01450874,28.858359 L7.00437282,28.8408718 C6.64116893,28.2028718 6.26445049,27.5428718 5.90406214,26.8902051 C4.9068,25.0862051 4.17081942,23.3944615 3.65332427,21.7185128 C3.2912466,20.5485641 3.03728544,19.3532308 2.89763495,18.1657949 C2.78501359,17.2118974 2.75122718,16.2461538 2.79627573,15.2962051 C2.88130485,13.5373333 3.31771262,11.7903077 4.09536311,10.103641 C5.07179029,7.98374359 6.5139068,6.05 8.38116893,4.3554359 C9.75796505,3.10707692 11.2704699,2.09169231 12.8787029,1.33748718 C14.1648388,0.733897436 15.4661786,0.328871795 16.7483728,0.134820513 C17.3441398,0.044 17.8875379,0 18.4106641,0" id="Fill-3"></path><path d="M55.508365,29.821959 L57.5428699,27.2242667 C57.7478408,26.9636513 57.7022291,26.5873949 57.4426369,26.3831897 C57.1830447,26.1789846 56.8068893,26.2246769 56.6024816,26.4847282 L54.5679767,29.0818564 C54.5679767,29.0818564 54.5234913,29.3334462 54.9002097,29.6290359 C55.276365,29.9246256 55.508365,29.821959 55.508365,29.821959" id="Fill-6"></path><path d="M55.928499,30.4218821 L55.7989845,30.4794205 C55.7319748,30.5087538 55.5917612,30.5578308 55.3980524,30.5578308 C55.179567,30.5578308 54.8388874,30.4946513 54.4576641,30.1945487 C53.930033,29.7799333 53.8050233,29.2835231 53.861334,28.9574718 L53.9013146,28.7273179 C53.582033,28.8051641 53.2835864,28.9800359 53.0521495,29.2485487 C50.5970039,32.0927538 48.5287126,32.7335744 47.1665573,32.7335744 C47.0854699,32.7335744 47.0060718,32.7290615 46.9306155,32.7268051 C45.5470621,32.6867538 45.0160524,32.0194205 44.9073728,31.9003949 C43.9163049,30.6847538 44.2941495,28.3014205 44.2941495,28.3014205 C44.3622854,27.8095231 44.4737806,27.2843436 44.6297612,26.7275744 L44.6387709,26.6897795 C45.462033,24.0509077 47.6114117,22.5757795 47.6283049,22.5656256 C48.1514311,22.1837282 48.5962854,21.9592154 48.9775087,21.8277795 C48.9775087,21.8277795 49.522033,21.6224462 49.774868,21.8435744 C49.9100136,21.9614718 50.0136252,22.2288564 49.8379359,22.6361385 C49.6780136,22.980241 49.4409456,23.3909077 49.1047709,23.838241 C49.0811204,23.8698308 49.0574699,23.9014205 49.0321301,23.9341385 C48.9983437,23.9775744 48.962868,24.0215744 48.9268291,24.0655744 C48.9020524,24.0966 48.8778388,24.1276256 48.852499,24.1580872 C48.8113922,24.2077282 48.768033,24.2573692 48.7252369,24.3070103 C48.7021495,24.3340872 48.6796252,24.3611641 48.6554117,24.388241 C48.5895282,24.4627026 48.5219553,24.5371641 48.4510039,24.6121897 L48.4414311,24.6217795 L48.4177806,24.6477282 C47.8327126,25.2919333 47.1980913,25.9073692 46.542635,26.4867026 C46.0820136,26.8956769 45.6101301,27.2866 45.1376835,27.6577795 L45.1371204,27.6577795 C45.0819359,27.9144462 45.0374505,28.1626513 45.0053534,28.4001385 L45.0042272,28.4074718 L45.003101,28.414241 C44.9180718,28.9456256 44.8212175,30.6300359 45.4473922,31.4271128 C45.4597806,31.4400872 45.4794893,31.4592667 45.5059553,31.4823949 C47.270732,30.2306513 49.2016252,28.6647026 50.8318194,26.8708564 C50.8588485,26.8415231 50.8903825,26.8088051 50.9213534,26.7743949 C50.9292369,26.7659333 50.9376835,26.7569077 50.9450039,26.7484462 C50.9742854,26.7168564 51.0046932,26.6835744 51.0362272,26.6474718 C51.0418583,26.6412667 51.0469262,26.6361897 51.0525573,26.6299846 C51.0891592,26.588241 51.1291398,26.5436769 51.1685573,26.4974205 C51.1770039,26.4872667 51.1860136,26.4771128 51.1955864,26.466959 C51.2288097,26.4269077 51.2642854,26.3857282 51.2997612,26.3428564 C51.3098971,26.3315744 51.3183437,26.3202923 51.3279165,26.3090103 C51.3718388,26.2565487 51.4163243,26.2023949 51.462499,26.1448564 C51.4703825,26.1352667 51.4788291,26.1251128 51.4861495,26.1155231 C51.5261301,26.0658821 51.5655476,26.0151128 51.6055282,25.9632154 C51.6179165,25.9485487 51.6286155,25.9338821 51.6410039,25.9192154 C51.6894311,25.8560359 51.7378583,25.7917282 51.7874117,25.7246 C51.789101,25.7206513 51.7924796,25.7161385 51.7958583,25.7116256 C51.8414699,25.6495744 51.8870816,25.5852667 51.9332563,25.5203949 C51.9400136,25.5108051 51.947334,25.5017795 51.952965,25.4927538 L51.9524019,25.4927538 C52.7390621,24.3696256 53.5471204,22.7986 53.3494699,21.2608564 C53.2261495,20.3007538 52.7131592,19.4957795 51.9056641,18.9942923 L51.8859553,18.9818821 C51.2575282,18.6039333 50.5497029,18.4160872 49.7878194,18.4160872 C48.5878388,18.4160872 47.2515864,18.8797795 45.8674699,19.7941897 C45.5290427,20.0113692 42.5665379,21.9975744 41.465101,25.8628051 C40.9768874,27.5776769 40.8332951,29.1323436 40.9988485,30.5081897 C40.9988485,30.5081897 41.1238583,32.0707538 42.134635,33.6592667 C42.1954505,33.7500872 42.2596447,33.8397795 42.3244019,33.9283436 C42.6363631,34.3683436 43.8858971,35.8440359 46.7436641,36.0064974 C46.8827515,36.0143949 47.0240913,36.0183436 47.1710621,36.0183436 C49.2607515,36.0183436 52.2874505,35.1575231 55.5320718,31.3966513 C55.7764602,31.1129077 55.9076641,30.7693692 55.928499,30.4218821" id="Fill-9"></path><path d="M13.0897553,35.5593897 C12.6972699,35.7297487 12.3019689,35.9001077 11.9207456,36.0625692 L10.9865515,36.4596974 C9.52022136,37.0824667 8.13554175,37.6708256 7.73235728,37.8507744 C7.14841553,38.1096974 6.61121165,38.4876462 6.13538641,38.9733385 C6.03008544,39.0805179 5.50808544,39.6936974 5.40334757,39.8053897 C5.33859029,39.8787231 5.2732699,39.9543128 5.20569709,40.0332872 C4.72987184,40.6120564 4.41227961,40.3322615 4.41227961,40.3322615 C4.11158058,40.1246718 4.39369709,39.8099026 4.39369709,39.8099026 C4.79913398,39.3586205 5.19950291,38.9022615 5.62408544,38.4690308 C6.14946408,37.9331333 6.75086214,37.5004667 7.44179417,37.1935949 C7.9328233,36.9752872 9.78488155,36.1894923 11.6403184,35.4008769 C12.9799495,34.8305692 14.5459495,34.1395436 15.3782214,33.7785179 C15.392299,33.8304154 15.4807068,34.2015949 15.4953476,34.2529282 C16.1401049,36.4738 17.5771534,38.0882615 19.4376583,38.6828256 C19.9596583,38.8498 20.5002408,38.932159 21.0487068,38.932159 C22.4559107,38.932159 23.9109786,38.3917487 25.2128816,37.3577487 C26.8368816,36.0676462 28.1416,34.1169795 28.8466097,31.8521077 C28.9034835,31.6699026 28.9395223,31.529441 28.9806291,31.2586718 C29.1095806,31.1977487 29.3100466,31.1018513 29.4299883,31.0381077 C29.9311534,30.7752359 30.4103573,30.4717487 30.8788621,30.1513385 C31.0033087,31.1655949 31.4250757,33.1642103 32.1148816,34.3606718 C32.7292311,35.4285179 33.6949592,36.0202615 34.9242214,36.1364667 C36.741367,36.2774923 38.2763961,35.7720564 40.2444544,34.7013897 C40.3728427,34.6370821 40.8323379,34.4018513 41.513134,34.0176974 C40.7208427,32.6785179 40.4319689,31.4673897 40.3317359,30.9049795 C39.3845903,31.4578 38.7719301,31.7663641 38.7533476,31.7759538 L38.6998524,31.804159 C37.2802602,32.5798 36.0909786,32.8533897 35.3499301,32.5781077 C34.7654252,32.3598 34.5536971,31.8103641 34.5452505,31.7872359 C34.036765,30.6849795 33.8064544,28.0607744 34.6832117,22.9195436 C35.0272699,20.8966718 35.6455612,18.8168256 36.3015806,16.8734923 C37.1006291,14.5087744 38.0162408,12.1903128 39.0974058,9.93954359 C39.2792893,9.54974872 39.5073476,9.23892821 39.7354058,9.27672308 C39.7984738,9.28631282 39.9516388,9.34441538 39.9595223,9.52774872 C39.9679689,9.73082564 39.8677359,10.0049795 39.7416,10.2802615 C38.7730563,12.3324667 37.7763573,14.7496462 36.9812505,17.1047744 C36.1833282,19.4666718 35.6776583,21.3519026 35.3904738,23.0408256 C35.1505903,24.445441 34.9991146,25.6289282 34.9107068,26.623441 L34.9112699,26.623441 C36.5099301,23.6647231 43.4637359,14.1832872 43.284668,8.3578 C43.2170951,6.17415897 41.4264155,5.74487692 40.7495612,5.64446667 C36.108435,4.87277436 31.6396194,16.9304667 30.909833,26.0051846 C30.5804155,26.2815949 30.2408621,26.5455949 29.8883573,26.7904154 C29.7335029,26.898159 29.5741437,26.9985692 29.4130951,27.0972872 C29.1456194,24.0595949 27.5970757,21.6142103 25.1239107,20.8239026 C24.5850175,20.6518513 24.0359883,20.5689282 23.4875223,20.5689282 C20.2868233,20.5689282 17.0759883,23.3821077 15.7149592,27.6557487 C15.4491728,28.4900564 15.2729204,29.3350821 15.1833864,30.1693897 L15.1006097,30.2004154 L15.1833864,30.1693897 L15.1006097,30.2004154 C14.9322408,30.2630308 14.7267068,30.3397487 14.522299,30.4164667 C14.1962602,30.5377487 13.8741631,30.6573385 13.7131146,30.7182615 C13.5926097,30.7645179 12.8436777,31.0668769 11.4860272,31.6185692 C10.0726291,32.1916974 8.45257087,32.8511333 8.40808544,32.8691846 C8.21662913,32.9487231 8.02460971,33.0316462 7.83765825,33.1151333 C6.1764932,33.8580564 4.80138641,34.5248256 3.49103689,35.3619538 C2.75730874,35.8307231 1.81973592,36.4884667 1.07418252,37.4226205 C0.40521165,38.2591846 0.0560854369,39.1262103 0.00540582524,40.0722103 C-0.0604776699,41.3064667 0.485172816,42.2750308 1.58266796,42.8746718 C2.16097864,43.189441 2.76969709,43.3095949 3.23538641,43.3789795 C3.47864854,43.4156462 3.72134757,43.4336974 3.95672621,43.4336974 C4.59585243,43.4336974 5.21808544,43.2988769 5.80765825,43.0320564 C6.68272621,42.6366205 7.51781359,42.0595436 8.43736699,41.2179026 C10.0715029,39.7219026 11.8565515,37.3543641 13.0897553,35.5593897 M25.2742602,30.6674923 L25.2742602,30.6680564 C24.8119495,32.1849282 23.970668,33.5246718 22.9655223,34.3448769 C22.5803573,34.6579538 21.8916777,35.1188256 21.1624544,35.1272872 C20.9980272,35.1295436 20.8319107,35.1086718 20.6663573,35.0584667 C19.7653864,34.7831846 19.3340466,33.7638513 19.1561049,33.1811333 C18.7788233,31.9384154 18.8266874,30.3561077 19.288435,28.8403641 C20.1370369,26.0520051 22.0104932,24.4008769 23.4098136,24.3833897 C23.5798718,24.3811333 23.7426097,24.4025692 23.8952117,24.4493897 C25.3114252,24.8814923 26.2253476,27.5418 25.2742602,30.6674923" id="Fill-11"></path></g></g></g></g></g></svg>